<svg xmlns="http://www.w3.org/2000/svg" viewBox="0 0 500 500"><g id="freepik--background-simple--inject-2"><path d="M446.33,145.29s-80.4-115.75-180.78-128C176.94,6.41,94.69,48.79,83.24,140.35,79.16,173,71.9,209.07,59,238.83,44.53,272.21,19.84,300,38.75,364.17,52.26,410,96.83,452.63,142.35,473.22H247c38.68-18.62,74.75-54.45,106.17-88C398.12,337.27,541.4,292.17,446.33,145.29Z" style="fill:#FFB35E"></path><path d="M446.33,145.29s-80.4-115.75-180.78-128C176.94,6.41,94.69,48.79,83.24,140.35,79.16,173,71.9,209.07,59,238.83,44.53,272.21,19.84,300,38.75,364.17,52.26,410,96.83,452.63,142.35,473.22H247c38.68-18.62,74.75-54.45,106.17-88C398.12,337.27,541.4,292.17,446.33,145.29Z" style="fill:#fff;opacity:0.7000000000000001"></path></g><g id="freepik--shelves-2--inject-2"><rect x="229.48" y="156.11" width="16.98" height="19.76" style="fill:#fff;stroke:#263238;stroke-linecap:round;stroke-linejoin:round"></rect><rect x="249.22" y="156.11" width="16.98" height="19.76" style="fill:#fff;stroke:#263238;stroke-linecap:round;stroke-linejoin:round"></rect><rect x="268.95" y="156.11" width="16.98" height="19.76" style="fill:#fff;stroke:#263238;stroke-linecap:round;stroke-linejoin:round"></rect><rect x="229.48" y="156.11" width="16.98" height="7.14" style="fill:#fff;stroke:#263238;stroke-linecap:round;stroke-linejoin:round"></rect><rect x="249.22" y="156.11" width="16.98" height="7.14" style="fill:#fff;stroke:#263238;stroke-linecap:round;stroke-linejoin:round"></rect><rect x="268.95" y="156.11" width="16.98" height="7.14" style="fill:#fff;stroke:#263238;stroke-linecap:round;stroke-linejoin:round"></rect><rect x="252.6" y="228.98" width="16.98" height="19.76" style="fill:#fff;stroke:#263238;stroke-linecap:round;stroke-linejoin:round"></rect><rect x="272.34" y="228.98" width="16.98" height="19.76" style="fill:#fff;stroke:#263238;stroke-linecap:round;stroke-linejoin:round"></rect><rect x="292.07" y="228.98" width="16.98" height="19.76" style="fill:#fff;stroke:#263238;stroke-linecap:round;stroke-linejoin:round"></rect><rect x="252.6" y="228.98" width="16.98" height="7.14" style="fill:#fff;stroke:#263238;stroke-linecap:round;stroke-linejoin:round"></rect><rect x="272.34" y="228.98" width="16.98" height="7.14" style="fill:#fff;stroke:#263238;stroke-linecap:round;stroke-linejoin:round"></rect><rect x="292.07" y="228.98" width="16.98" height="7.14" style="fill:#fff;stroke:#263238;stroke-linecap:round;stroke-linejoin:round"></rect><rect x="302.82" y="156.11" width="16.98" height="19.76" style="fill:#fff;stroke:#263238;stroke-linecap:round;stroke-linejoin:round"></rect><rect x="322.56" y="156.11" width="16.98" height="19.76" style="fill:#fff;stroke:#263238;stroke-linecap:round;stroke-linejoin:round"></rect><rect x="342.29" y="156.11" width="16.98" height="19.76" style="fill:#fff;stroke:#263238;stroke-linecap:round;stroke-linejoin:round"></rect><rect x="302.82" y="156.11" width="16.98" height="7.14" style="fill:#fff;stroke:#263238;stroke-linecap:round;stroke-linejoin:round"></rect><rect x="322.56" y="156.11" width="16.98" height="7.14" style="fill:#fff;stroke:#263238;stroke-linecap:round;stroke-linejoin:round"></rect><rect x="342.29" y="156.11" width="16.98" height="7.14" style="fill:#fff;stroke:#263238;stroke-linecap:round;stroke-linejoin:round"></rect><rect x="377.69" y="156.11" width="16.98" height="19.76" style="fill:#fff;stroke:#263238;stroke-linecap:round;stroke-linejoin:round"></rect><rect x="397.43" y="156.11" width="16.98" height="19.76" style="fill:#fff;stroke:#263238;stroke-linecap:round;stroke-linejoin:round"></rect><rect x="417.16" y="156.11" width="16.98" height="19.76" style="fill:#fff;stroke:#263238;stroke-linecap:round;stroke-linejoin:round"></rect><rect x="377.69" y="156.11" width="16.98" height="7.14" style="fill:#fff;stroke:#263238;stroke-linecap:round;stroke-linejoin:round"></rect><rect x="397.43" y="156.11" width="16.98" height="7.14" style="fill:#fff;stroke:#263238;stroke-linecap:round;stroke-linejoin:round"></rect><rect x="417.16" y="156.11" width="16.98" height="7.14" style="fill:#fff;stroke:#263238;stroke-linecap:round;stroke-linejoin:round"></rect><polygon points="425.28 209.66 425.28 193.34 418.82 193.34 418.82 209.66 413.47 217.84 413.47 250.21 430.63 250.21 430.63 217.84 425.28 209.66" style="fill:#fff;stroke:#263238;stroke-linecap:round;stroke-linejoin:round"></polygon><rect x="418.82" y="193.34" width="6.45" height="8.52" style="fill:#fff;stroke:#263238;stroke-linecap:round;stroke-linejoin:round"></rect><rect x="413.47" y="226.03" width="13.26" height="13.65" style="fill:#fff;stroke:#263238;stroke-linecap:round;stroke-linejoin:round"></rect><polygon points="403.05 209.66 403.05 193.34 396.6 193.34 396.6 209.66 391.25 217.84 391.25 250.21 408.4 250.21 408.4 217.84 403.05 209.66" style="fill:#fff;stroke:#263238;stroke-linecap:round;stroke-linejoin:round"></polygon><rect x="396.6" y="193.34" width="6.45" height="8.52" style="fill:#fff;stroke:#263238;stroke-linecap:round;stroke-linejoin:round"></rect><rect x="391.25" y="226.03" width="13.26" height="13.65" style="fill:#fff;stroke:#263238;stroke-linecap:round;stroke-linejoin:round"></rect><polygon points="243.81 209.66 243.81 193.34 237.36 193.34 237.36 209.66 232.01 217.84 232.01 250.21 249.17 250.21 249.17 217.84 243.81 209.66" style="fill:#fff;stroke:#263238;stroke-linecap:round;stroke-linejoin:round"></polygon><rect x="237.36" y="193.34" width="6.45" height="8.52" style="fill:#fff;stroke:#263238;stroke-linecap:round;stroke-linejoin:round"></rect><rect x="232.01" y="226.03" width="13.26" height="13.65" style="fill:#fff;stroke:#263238;stroke-linecap:round;stroke-linejoin:round"></rect><line x1="222.15" y1="176.61" x2="441.03" y2="176.61" style="fill:none;stroke:#263238;stroke-linecap:round;stroke-linejoin:round;stroke-width:4px"></line><line x1="294.45" y1="104.56" x2="294.45" y2="250.98" style="fill:none;stroke:#263238;stroke-linecap:round;stroke-linejoin:round;stroke-width:4px"></line><line x1="370.19" y1="104.56" x2="370.19" y2="250.98" style="fill:none;stroke:#263238;stroke-linecap:round;stroke-linejoin:round;stroke-width:4px"></line><rect x="221.83" y="102.65" width="220.74" height="148.46" style="fill:none;stroke:#263238;stroke-linecap:round;stroke-linejoin:round;stroke-width:4px"></rect></g><g id="freepik--Mug--inject-2"><path d="M216.07,285.72H216a8.5,8.5,0,0,1-5.86-3.13,5,5,0,0,1-.91-3.93,3.14,3.14,0,0,1,1.67-2.46,4.35,4.35,0,0,1,3.61.38.92.92,0,0,1-.9,1.61h0a2.66,2.66,0,0,0-1.93-.31A1.46,1.46,0,0,0,211,279a3.13,3.13,0,0,0,.58,2.5,6.86,6.86,0,0,0,4.6,2.39.92.92,0,0,1-.11,1.84Z" style="fill:#fff;stroke:#263238;stroke-linecap:round;stroke-linejoin:round"></path><path d="M220,287.58h0a5.56,5.56,0,0,1-5.53-5L213.7,275h12.57l-.75,7.57A5.57,5.57,0,0,1,220,287.58Z" style="fill:#fff;stroke:#263238;stroke-linecap:round;stroke-linejoin:round"></path><polygon points="233.75 287.48 207.04 287.48 209.27 289.33 231.53 289.33 233.75 287.48" style="fill:#fff;stroke:#263238;stroke-linecap:round;stroke-linejoin:round"></polygon><path d="M216.7,273.35s.66-3,2.38-4.35,4-2.12,4-3.83" style="fill:none;stroke:#263238;stroke-linecap:round;stroke-linejoin:round"></path><path d="M221.45,273.35s-.53-1.71,2-2.9" style="fill:none;stroke:#263238;stroke-linecap:round;stroke-linejoin:round"></path></g><g id="freepik--Counter--inject-2"><rect x="350.15" y="250" width="56.64" height="39.46" style="fill:#fff;stroke:#263238;stroke-linecap:round;stroke-linejoin:round"></rect><rect x="353.01" y="255.29" width="50.9" height="34.17" style="fill:#fff;stroke:#263238;stroke-linecap:round;stroke-linejoin:round"></rect><rect x="370.19" y="272.37" width="16.55" height="17.08" style="fill:#fff;stroke:#263238;stroke-linecap:round;stroke-linejoin:round"></rect><polygon points="353.01 255.29 350.15 250 406.78 250 403.91 255.29 353.01 255.29" style="fill:#fff;stroke:#263238;stroke-linecap:round;stroke-linejoin:round"></polygon><rect x="47.32" y="289.48" width="420.97" height="185.64" style="fill:#fff;stroke:#263238;stroke-linecap:round;stroke-linejoin:round"></rect><rect x="47.32" y="289.48" width="420.97" height="14.77" style="fill:#263238;stroke:#263238;stroke-linecap:round;stroke-linejoin:round"></rect><rect x="47.32" y="289.48" width="420.97" height="9.44" style="fill:#fff;stroke:#263238;stroke-linecap:round;stroke-linejoin:round"></rect></g><g id="freepik--Plant--inject-2"><path d="M19,378.76c1.77.77,6.12.67,6.12.67s-.93-2.84-1-3c-.95-2-4-5.29-6.42-5a2.93,2.93,0,0,0-2.35,3.67C15.75,376.83,17.49,378.09,19,378.76Z" style="fill:#263238"></path><path d="M20.51,391.34c1.84.27,5.72-.85,6-.94a51.87,51.87,0,0,0,2.36,6.5c.53,1.24,1.11,2.47,1.7,3.69-.36-.52-.68-1-.73-1-1.44-1.67-5.22-4.05-7.5-3.08a2.93,2.93,0,0,0-1.3,4.16c.84,1.53,2.86,2.29,4.49,2.53s5-.65,5.86-.9c.24.46.46.93.7,1.4,1.12,2.24,2.25,4.46,3.29,6.68.37.78.7,1.56,1,2.35l-.63-.9c-1.45-1.67-5.23-4.05-7.5-3.09a2.93,2.93,0,0,0-1.3,4.17c.84,1.53,2.85,2.28,4.49,2.52s4.66-.56,5.7-.85c.32.81.64,1.62.92,2.42.17.55.38,1.07.52,1.63s.31,1.11.46,1.65c.25,1.06.52,2.15.74,3.19.16.72.3,1.41.44,2.1-.35-.78-1.08-2.3-1.16-2.42-1.17-1.87-4.55-4.79-6.95-4.18a2.93,2.93,0,0,0-1.91,3.92c.6,1.64,2.48,2.69,4.06,3.17s5.58.05,6.06,0c.23,1.15.45,2.27.63,3.33.42,2.34.73,4.44,1,6.21H43.6c-.29-1.83-.66-4-1.15-6.48-.23-1.17-.49-2.41-.78-3.69a30.9,30.9,0,0,0,3.38-1.59A21.42,21.42,0,0,0,50,427c-.44,1.09-.88,2.14-1.32,3.13-.89,2.06-1.75,3.9-2.5,5.45h1.76c.64-1.43,1.35-3.07,2.1-4.88.45-1.1.91-2.29,1.38-3.51.46.1,4.27.87,6.05.47,1.61-.37,3.56-1.28,4.28-2.87a2.93,2.93,0,0,0-1.62-4.05c-2.34-.79-5.93,1.88-7.24,3.66-.08.1-.79,1.33-1.23,2.12.19-.5.38-1,.56-1.5.38-1,.72-2.05,1.09-3.16.17-.54.33-1.09.5-1.64s.29-1.14.44-1.71c.32-1.34.57-2.72.8-4.11.9.33,4.09,1.44,5.75,1.32s3.71-.72,4.66-2.18a2.93,2.93,0,0,0-1-4.25c-2.2-1.13-6.15,1-7.71,2.52-.1.1-1.1,1.34-1.63,2,.13-.84.26-1.67.37-2.52.3-2.46.53-4.95.78-7.44.07-.76.15-1.52.23-2.28.32.12,4.09,1.52,5.94,1.39,1.65-.11,3.71-.72,4.67-2.18a2.93,2.93,0,0,0-1-4.25c-2.2-1.14-6.14,1-7.71,2.52-.12.11-1.55,1.91-1.89,2.38.17-1.67.37-3.34.62-5a51.89,51.89,0,0,1,1.43-6.54c.15.06,4.07,1.54,6,1.41,1.65-.12,3.71-.72,4.67-2.19a2.93,2.93,0,0,0-1-4.25c-2.2-1.13-6.14,1-7.71,2.52-.12.12-1.66,2.05-1.92,2.42,0-.12.06-.25.1-.38a38,38,0,0,1,2.59-6.18c.56-1.1,1.16-2.13,1.77-3.11.7.35,3.93,1.92,5.65,2s3.77-.31,4.88-1.66a2.92,2.92,0,0,0-.51-4.33c-2.06-1.37-6.21.28-7.94,1.66-.1.07-1,.94-1.59,1.58.28-.44.56-.9.84-1.31,1-1.56,2.08-2.93,3-4.13.54-.67,1-1.28,1.51-1.84.87,0,4.37-.12,5.9-.84s3.21-2,3.57-3.72A2.94,2.94,0,0,0,75.93,364c-2.46-.26-5.39,3.11-6.29,5.13-.07.18-1,3.05-.93,3.05h.05c-.47.52-1,1.1-1.48,1.73-1,1.19-2,2.53-3.12,4.07a54.68,54.68,0,0,0-3.23,5.15,37.85,37.85,0,0,0-2.75,6.21l0,.07c0-.72,0-2.75,0-2.91-.28-2.19-2.12-6.26-4.55-6.71a2.93,2.93,0,0,0-3.38,2.76c-.14,1.74,1.12,3.48,2.35,4.58,1.39,1.24,5.24,2.44,5.55,2.54a51.5,51.5,0,0,0-1.63,6.72c-.23,1.33-.43,2.67-.61,4,0-.63,0-1.19,0-1.27-.29-2.19-2.12-6.26-4.56-6.71a2.94,2.94,0,0,0-3.38,2.76c-.14,1.74,1.12,3.48,2.35,4.58s4.52,2.21,5.39,2.48c-.07.52-.14,1-.2,1.56-.29,2.48-.58,5-.93,7.39-.13.85-.28,1.69-.43,2.52,0-.55,0-1,0-1.09-.29-2.2-2.13-6.26-4.56-6.71a2.93,2.93,0,0,0-3.38,2.75c-.14,1.74,1.12,3.49,2.35,4.59s4.2,2.09,5.23,2.43c-.18.85-.36,1.71-.57,2.53-.16.55-.28,1.1-.47,1.65s-.35,1.09-.52,1.62c-.37,1-.75,2.08-1.14,3.07-.26.69-.53,1.34-.79,2,.13-.85.36-2.52.36-2.66A11.37,11.37,0,0,0,49,418.33a4.73,4.73,0,0,0,0-.65,2.93,2.93,0,0,0-3.59-2.48c-2.39.63-3.91,4.83-4,7,0,.13.08,1.55.15,2.45-.12-.52-.23-1-.36-1.56-.26-1.06-.54-2.11-.84-3.24-.16-.54-.32-1.09-.49-1.64s-.39-1.11-.58-1.67c-.47-1.29-1-2.58-1.59-3.87.93-.22,4.2-1.06,5.52-2.07s2.7-2.65,2.69-4.39a2.94,2.94,0,0,0-3.17-3c-2.46.26-4.6,4.19-5,6.35,0,.14-.18,1.73-.24,2.6-.35-.77-.7-1.54-1.08-2.31-1.1-2.21-2.28-4.42-3.45-6.63l-1.06-2c.33-.08,4.25-1,5.72-2.12,1.31-1,2.7-2.65,2.69-4.39a2.93,2.93,0,0,0-3.17-3c-2.46.27-4.6,4.19-5,6.35,0,.16-.24,2.45-.27,3-.77-1.5-1.53-3-2.22-4.49a51.62,51.62,0,0,1-2.41-6.24c.15,0,4.24-1,5.75-2.13,1.31-1,2.7-2.65,2.69-4.4a2.92,2.92,0,0,0-3.17-3c-2.46.26-4.59,4.18-5,6.35,0,.17-.26,2.63-.26,3.08,0-.12-.1-.25-.13-.37a37.54,37.54,0,0,1-1.25-6.59c-.14-1.23-.21-2.41-.24-3.57.78-.09,4.34-.57,5.81-1.46s3-2.33,3.16-4.07a2.93,2.93,0,0,0-2.82-3.33c-2.48,0-5,3.66-5.71,5.76,0,.11-.29,1.32-.45,2.2,0-.52,0-1.06,0-1.56,0-1.87.12-3.58.24-5.1.07-.86.16-1.64.24-2.37.72-.49,3.58-2.51,4.46-4s1.57-3.44.92-5.07a2.93,2.93,0,0,0-4-1.66c-2.2,1.14-2.78,5.57-2.41,7.75,0,.19.86,3.08.9,3.05l0,0c-.1.7-.19,1.45-.28,2.27-.15,1.52-.31,3.24-.35,5.12a52.61,52.61,0,0,0,.14,6.07,39.42,39.42,0,0,0,1.13,6.7.19.19,0,0,1,0,.07c-.39-.61-1.53-2.28-1.64-2.4-1.44-1.67-5.22-4.05-7.5-3.09a2.94,2.94,0,0,0-1.3,4.17C16.86,390.35,18.87,391.1,20.51,391.34Z" style="fill:#263238"></path><path d="M63,379.71s.79-2.89.82-3.08c.3-2.18-.4-6.59-2.63-7.67a2.92,2.92,0,0,0-4,1.76c-.6,1.65.16,3.66,1,5C59.28,377.39,63,379.71,63,379.71Z" style="fill:#263238"></path><polygon points="58.14 432.47 31.46 432.47 34.13 475.12 55.47 475.12 58.14 432.47" style="fill:#263238"></polygon></g><g id="freepik--Stool--inject-2"><rect x="281.56" y="356.28" width="5.37" height="118.84" style="fill:#fff;stroke:#263238;stroke-linecap:round;stroke-linejoin:round"></rect><rect x="267.85" y="401.55" width="33.68" height="2.33" style="fill:#fff;stroke:#263238;stroke-linecap:round;stroke-linejoin:round"></rect><rect x="265.24" y="440.83" width="38.9" height="2.33" style="fill:#fff;stroke:#263238;stroke-linecap:round;stroke-linejoin:round"></rect><polygon points="264.3 475.12 258.56 475.12 268.54 354.95 274.27 354.95 264.3 475.12" style="fill:#fff;stroke:#263238;stroke-linecap:round;stroke-linejoin:round"></polygon><polygon points="305.09 475.12 310.82 475.12 300.85 354.95 295.11 354.95 305.09 475.12" style="fill:#fff;stroke:#263238;stroke-linecap:round;stroke-linejoin:round"></polygon><rect x="264.71" y="347.63" width="39.06" height="10.32" style="fill:#fff;stroke:#263238;stroke-linecap:round;stroke-linejoin:round"></rect><rect x="264.71" y="347.63" width="39.06" height="4.95" style="fill:#263238;stroke:#263238;stroke-linecap:round;stroke-linejoin:round"></rect><rect x="261.67" y="345.63" width="45.15" height="4.33" style="fill:#fff;stroke:#263238;stroke-linecap:round;stroke-linejoin:round"></rect></g><g id="freepik--character-1--inject-2"><rect x="138.92" y="356.28" width="5.37" height="118.84" style="fill:#fff;stroke:#263238;stroke-linecap:round;stroke-linejoin:round"></rect><rect x="125.22" y="401.55" width="33.68" height="2.33" style="fill:#fff;stroke:#263238;stroke-linecap:round;stroke-linejoin:round"></rect><rect x="122.61" y="440.83" width="38.9" height="2.33" style="fill:#fff;stroke:#263238;stroke-linecap:round;stroke-linejoin:round"></rect><polygon points="121.66 475.12 115.93 475.12 125.91 354.95 131.64 354.95 121.66 475.12" style="fill:#fff;stroke:#263238;stroke-linecap:round;stroke-linejoin:round"></polygon><polygon points="162.46 475.12 168.19 475.12 158.21 354.95 152.48 354.95 162.46 475.12" style="fill:#fff;stroke:#263238;stroke-linecap:round;stroke-linejoin:round"></polygon><rect x="122.08" y="347.63" width="39.06" height="10.32" style="fill:#fff;stroke:#263238;stroke-linecap:round;stroke-linejoin:round"></rect><rect x="122.08" y="347.63" width="39.06" height="4.95" style="fill:#263238;stroke:#263238;stroke-linecap:round;stroke-linejoin:round"></rect><rect x="119.04" y="345.63" width="45.15" height="4.33" style="fill:#fff;stroke:#263238;stroke-linecap:round;stroke-linejoin:round"></rect><path d="M186.5,446s-8.16,6.88-7.4,7.9,8.67,12,11.48,14.79,11,6.88,12.49,5.35-4.33-13.26-5.35-15.81a21.19,21.19,0,0,1-.77-8.41C197.21,449,186.5,446,186.5,446Z" style="fill:#263238;stroke:#263238;stroke-linecap:round;stroke-linejoin:round"></path><path d="M190.58,464.33c-2.86-3.43-7.44-10.14-9.56-13.31-1.27,1.32-2.2,2.49-1.92,2.86.77,1,8.67,12,11.48,14.79s11,6.88,12.49,5.35a1.61,1.61,0,0,0,.24-1.22C199.81,471.17,193.43,467.75,190.58,464.33Z" style="fill:#fff;stroke:#263238;stroke-linecap:round;stroke-linejoin:round"></path><path d="M158.71,446.74s-8.16,6.88-7.4,7.9,8.67,12,11.48,14.79,11,6.89,12.49,5.36-4.34-13.26-5.36-15.81a21,21,0,0,1-.76-8.42C169.41,449.8,158.71,446.74,158.71,446.74Z" style="fill:#263238;stroke:#263238;stroke-linecap:round;stroke-linejoin:round"></path><path d="M162.79,465.1c-2.87-3.44-7.44-10.15-9.56-13.31-1.28,1.32-2.2,2.48-1.92,2.85.77,1,8.67,12,11.48,14.79s11,6.89,12.49,5.36a1.59,1.59,0,0,0,.23-1.23C172,471.93,165.63,468.52,162.79,465.1Z" style="fill:#fff;stroke:#263238;stroke-linecap:round;stroke-linejoin:round"></path><path d="M161.89,307s23.44,19.13,23.71,21.29a23.56,23.56,0,0,1-.27,5.39s22.91,43.92,23.72,49.85,6.2,69.53,6.2,69.53l-7-.27,1.35,5.66s-11.59,4.85-24,1.08-31-12.67-31-12.67L167,401.31s-11-.54-11.86-3.23-32.34-62-32.34-62,9.7-31.8,12.13-32.61S161.89,307,161.89,307Z" style="fill:#b5b5b5;stroke:#263238;stroke-linecap:round;stroke-linejoin:round"></path><path d="M175.54,364.94c2.66.26,3.86.26,3.86.26" style="fill:none;stroke:#263238;stroke-linecap:round;stroke-linejoin:round"></path><path d="M136.28,348.49s16.44,12.93,27.49,14.82c3.59.61,6.5,1,8.79,1.31" style="fill:none;stroke:#263238;stroke-linecap:round;stroke-linejoin:round"></path><path d="M172.67,345s24,40.42,24.25,41.23,11.32,64.41,11.32,64.41" style="fill:none;stroke:#263238;stroke-linecap:round;stroke-linejoin:round"></path><line x1="174.55" y1="347.41" x2="177.79" y2="340.94" style="fill:none;stroke:#263238;stroke-linecap:round;stroke-linejoin:round"></line><path d="M176.1,391.28a17.93,17.93,0,0,0,5.46,1.14" style="fill:none;stroke:#263238;stroke-linecap:round;stroke-linejoin:round"></path><path d="M142.48,366.28s25.34,20.75,30.19,23.44" style="fill:none;stroke:#263238;stroke-linecap:round;stroke-linejoin:round"></path><line x1="167.01" y1="401.31" x2="176.44" y2="410.47" style="fill:none;stroke:#263238;stroke-linecap:round;stroke-linejoin:round"></line><path d="M175.21,436.52a18.67,18.67,0,0,1-8.2,4.41" style="fill:none;stroke:#263238;stroke-linecap:round;stroke-linejoin:round"></path><path d="M191.53,390.8s-11.05,36.65-14,42.58" style="fill:none;stroke:#263238;stroke-linecap:round;stroke-linejoin:round"></path><path d="M186,445.86a34.07,34.07,0,0,1-1.47,5" style="fill:none;stroke:#263238;stroke-linecap:round;stroke-linejoin:round"></path><path d="M191.8,409.66s-2.76,21.9-5.38,34.25" style="fill:none;stroke:#263238;stroke-linecap:round;stroke-linejoin:round"></path><polygon points="193.36 281.13 188 283.88 185.11 286.35 182.5 282.78 191.16 274.81 193.36 281.13" style="fill:#fff;stroke:#263238;stroke-linecap:round;stroke-linejoin:round"></polygon><polygon points="195.14 261.48 182.37 280.99 190.2 280.31 202.84 262.17 195.14 261.48" style="fill:#263238;stroke:#263238;stroke-linecap:round;stroke-linejoin:round"></polygon><path d="M200.64,271.51s-5.63-1.37-6.18-.14.41,1.79,1.78,2.48,3.3,1.23,4.26-.28S200.64,271.51,200.64,271.51Z" style="fill:#fff;stroke:#263238;stroke-linecap:round;stroke-linejoin:round"></path><path d="M197.89,275s-6.32-1.24-6.73-.14-3.85,5.91-3,6.46,6,1,7-.14S197.89,275,197.89,275Z" style="fill:#fff;stroke:#263238;stroke-linecap:round;stroke-linejoin:round"></path><polygon points="169.86 288.82 182.37 280.99 187.59 287.59 160.25 312.73 159.42 295.28 169.86 288.82" style="fill:#263238;stroke:#263238;stroke-linecap:round;stroke-linejoin:round"></polygon><path d="M160.38,267.25s2.06,15.94,2.34,22.26.82,21.16.82,21.16l9.9-1.65s-1.24-18.82-3.3-28.58a60.27,60.27,0,0,0-5.91-16.35Z" style="fill:#FFB35E;stroke:#263238;stroke-linecap:round;stroke-linejoin:round"></path><path d="M159.28,265.05a279.17,279.17,0,0,1,4,34.77c.82,18.13-5.64,40.12-5.64,40.12s-7.14,3.84-23.22-2.61a199.74,199.74,0,0,1-27.06-13.19s1.78-38.34,8-52.63,9.34-20.88,15.66-22.67S159.28,265.05,159.28,265.05Z" style="fill:#263238;stroke:#263238;stroke-linecap:round;stroke-linejoin:round"></path><path d="M142.8,257.91,146,278l-31.77-4.24s-11.65,45.6-11.79,51,7,12.77,21.16,17.17,19.37,7,24,3.16,10.45-51.25,10-56.2-.68-7.14-.68-7.14l-9.07-3.85-3.3-19Z" style="fill:#fff;stroke:#263238;stroke-linecap:round;stroke-linejoin:round"></path><path d="M134,237.85s-7.28,2.75-7.42,6.87,3.44,7.83,4.67,8.38,20.2,10.85,22.26,11.4,10.72-2.74,10.72-5.49-21.3-19.65-23.77-21.71S134,237.85,134,237.85Z" style="fill:#FFB35E;stroke:#263238;stroke-linecap:round;stroke-linejoin:round"></path><path d="M142,229.88s-5.36-2.2-6.87.27-2.2,6.6-1.1,7.7,14.7,23.08,19.51,26.65,5.91,4.68,8.25,3,5.63-4.4,7.14-8,3.71-4.12.28-8.8-4.13-4.94-4.13-4.94Z" style="fill:#FFB35E;stroke:#263238;stroke-linecap:round;stroke-linejoin:round"></path><path d="M179.07,230.15s-2.34,5.09-3.3,6.19-2.47,1.1-2.47,2.2.82,5.49-.14,6.18-5.22,1.24-5.22,1.24-3.85,5.77-5.5,6.32-5.77-1.93-8.79-3.71-7.42-8.52-9.76-12.23-2.47-5.91-1.92-6.46-.55-8.11,11.4-10.17,19.38.28,21.44,2.75S179.07,230.15,179.07,230.15Z" style="fill:#fff;stroke:#263238;stroke-linecap:round;stroke-linejoin:round"></path><path d="M169.89,238c-.47.8-1.11,1.3-1.43,1.11s-.2-1,.27-1.79,1.11-1.3,1.43-1.11S170.36,237.19,169.89,238Z" style="fill:#263238"></path><path d="M172.72,235.85s-2.24-1.46-4-.56" style="fill:none;stroke:#263238;stroke-linecap:round;stroke-linejoin:round"></path><path d="M165.76,245.94a4.89,4.89,0,0,1-2.58-3.81" style="fill:none;stroke:#263238;stroke-linecap:round;stroke-linejoin:round"></path><path d="M146.78,201.85s-6.46,5.77-7.28,13.88S141,228.51,142,229.88s3.16.82,4.95-.55,4.94-4.67,8-4.53,5.08,0,5.08,0a46.24,46.24,0,0,1-5.5,9.75,30,30,0,0,1-4,4.4s7.83-6.32,10.44-8.38,4.12-6.46,4.12-6.46v3l5.91,2.61,3-4.53-1.23,5.49s1.23.28,2.88.83a36.79,36.79,0,0,0,6.05.82s1.79-8.93,1.79-14.56S175.91,203,167.39,200.2,150.35,198.69,146.78,201.85Z" style="fill:#263238;stroke:#263238;stroke-linecap:round;stroke-linejoin:round"></path><path d="M146.78,201.85a20.43,20.43,0,0,0-9.89-4.4c-5.91-.82-10.31,5-11.68,8.66a10,10,0,0,0-.55,6.18l10.58,3.3s1.78-9.89,5.08-11.68a8.74,8.74,0,0,1,5.91-1.1Z" style="fill:#263238;stroke:#263238;stroke-linecap:round;stroke-linejoin:round"></path><path d="M154.2,228.09s-1.37-6.59-5.22-6.18-3.16,11.13-1.79,12,4-.27,4-.27" style="fill:#fff;stroke:#263238;stroke-linecap:round;stroke-linejoin:round"></path><path d="M172.47,278.93s2.89-4.53,3.3-5.49,2.34-12.51,3.3-13.47,6.59-2.61,8.65-3.3,5.36-1.51,5.5-.82-2.88,1.78-4.4,2.88-3.71,5.5-4.81,8.66-1.23,6.6-2.74,8.11-5.77,6.87-5.77,6.87Z" style="fill:#fff;stroke:#263238;stroke-linecap:round;stroke-linejoin:round"></path><path d="M121.22,271S134,313,135.93,313.28,176.6,284.7,176.6,284.7L173,276.87l-25,9.34s-4.26-24.73-5.64-26.38-10.44-7.28-16.62-1.1" style="fill:#263238;stroke:#263238;stroke-linecap:round;stroke-linejoin:round"></path></g><g id="freepik--Lamps--inject-2"><path d="M198.13,55.71l-6.68-9.55H165.3l-6.69,9.55a28.66,28.66,0,0,0,1,34.25l3.09,3.91H194l3.1-3.91A28.65,28.65,0,0,0,198.13,55.71Z" style="fill:#fff;stroke:#263238;stroke-linecap:round;stroke-linejoin:round"></path><line x1="158.61" y1="55.71" x2="170.9" y2="55.71" style="fill:none;stroke:#263238;stroke-linecap:round;stroke-linejoin:round"></line><line x1="184.48" y1="59.62" x2="174.13" y2="59.62" style="fill:none;stroke:#263238;stroke-linecap:round;stroke-linejoin:round"></line><line x1="202.91" y1="77.73" x2="178.66" y2="77.73" style="fill:none;stroke:#263238;stroke-linecap:round;stroke-linejoin:round"></line><line x1="158.61" y1="77.41" x2="167.99" y2="77.41" style="fill:none;stroke:#263238;stroke-linecap:round;stroke-linejoin:round"></line><line x1="190.95" y1="72.56" x2="183.51" y2="72.56" style="fill:none;stroke:#263238;stroke-linecap:round;stroke-linejoin:round"></line><line x1="168.31" y1="84.52" x2="174.78" y2="84.52" style="fill:none;stroke:#263238;stroke-linecap:round;stroke-linejoin:round"></line><line x1="192.89" y1="49.27" x2="187.39" y2="49.27" style="fill:none;stroke:#263238;stroke-linecap:round;stroke-linejoin:round"></line><line x1="178.37" y1="46.12" x2="178.37" y2="9.1" style="fill:none;stroke:#263238;stroke-linecap:round;stroke-linejoin:round"></line><path d="M277.56,55.71l-6.68-9.55H244.73L238,55.71a28.66,28.66,0,0,0,1,34.25l3.09,3.91h31.28l3.1-3.91A28.66,28.66,0,0,0,277.56,55.71Z" style="fill:#fff;stroke:#263238;stroke-linecap:round;stroke-linejoin:round"></path><line x1="238.04" y1="55.71" x2="250.33" y2="55.71" style="fill:none;stroke:#263238;stroke-linecap:round;stroke-linejoin:round"></line><line x1="263.91" y1="59.62" x2="253.56" y2="59.62" style="fill:none;stroke:#263238;stroke-linecap:round;stroke-linejoin:round"></line><line x1="282.34" y1="77.73" x2="258.09" y2="77.73" style="fill:none;stroke:#263238;stroke-linecap:round;stroke-linejoin:round"></line><line x1="238.04" y1="77.41" x2="247.42" y2="77.41" style="fill:none;stroke:#263238;stroke-linecap:round;stroke-linejoin:round"></line><line x1="270.38" y1="72.56" x2="262.94" y2="72.56" style="fill:none;stroke:#263238;stroke-linecap:round;stroke-linejoin:round"></line><line x1="247.74" y1="84.52" x2="254.21" y2="84.52" style="fill:none;stroke:#263238;stroke-linecap:round;stroke-linejoin:round"></line><line x1="272.32" y1="49.27" x2="266.82" y2="49.27" style="fill:none;stroke:#263238;stroke-linecap:round;stroke-linejoin:round"></line><line x1="257.8" y1="46.12" x2="257.8" y2="9.1" style="fill:none;stroke:#263238;stroke-linecap:round;stroke-linejoin:round"></line><path d="M357,55.71l-6.68-9.55H324.16l-6.69,9.55a28.66,28.66,0,0,0,1,34.25l3.09,3.91h31.28L356,90A28.66,28.66,0,0,0,357,55.71Z" style="fill:#fff;stroke:#263238;stroke-linecap:round;stroke-linejoin:round"></path><line x1="317.47" y1="55.71" x2="329.76" y2="55.71" style="fill:none;stroke:#263238;stroke-linecap:round;stroke-linejoin:round"></line><line x1="343.34" y1="59.62" x2="332.99" y2="59.62" style="fill:none;stroke:#263238;stroke-linecap:round;stroke-linejoin:round"></line><line x1="361.77" y1="77.73" x2="337.52" y2="77.73" style="fill:none;stroke:#263238;stroke-linecap:round;stroke-linejoin:round"></line><line x1="317.47" y1="77.41" x2="326.85" y2="77.41" style="fill:none;stroke:#263238;stroke-linecap:round;stroke-linejoin:round"></line><line x1="349.8" y1="72.56" x2="342.37" y2="72.56" style="fill:none;stroke:#263238;stroke-linecap:round;stroke-linejoin:round"></line><line x1="327.17" y1="84.52" x2="333.64" y2="84.52" style="fill:none;stroke:#263238;stroke-linecap:round;stroke-linejoin:round"></line><line x1="351.75" y1="49.27" x2="346.25" y2="49.27" style="fill:none;stroke:#263238;stroke-linecap:round;stroke-linejoin:round"></line><line x1="337.23" y1="46.12" x2="337.23" y2="9.1" style="fill:none;stroke:#263238;stroke-linecap:round;stroke-linejoin:round"></line></g><g id="freepik--Floor--inject-2"><line x1="6.31" y1="475.12" x2="488.8" y2="475.12" style="fill:none;stroke:#263238;stroke-miterlimit:10"></line></g></svg>